<?xml version="1.0" encoding="UTF-8"?><svg id="a" xmlns="http://www.w3.org/2000/svg" viewBox="0 0 360.92 609.44"><path d="M67.49,410.34h-10.81v-17.21c0-1.31-.34-2.38-1.02-3.2-.68-.82-1.82-1.23-3.4-1.23h-12.45v21.63h-10.82v-57.35h21.96c2.95,0,5.54.41,7.78,1.23,2.24.82,4.11,1.95,5.61,3.4,1.5,1.45,2.65,3.13,3.44,5.04.79,1.91,1.19,3.96,1.19,6.15v1.97c0,2.35-.63,4.55-1.88,6.6-1.26,2.05-3.2,3.62-5.82,4.71v1.47c1.91.22,3.43.96,4.55,2.21,1.12,1.26,1.68,2.84,1.68,4.75v19.83ZM39.8,378.39h10.32c2.62,0,4.62-.61,5.98-1.84,1.36-1.23,2.05-2.96,2.05-5.2v-.98c0-1.91-.68-3.56-2.05-4.96-1.37-1.39-3.36-2.09-5.98-2.09h-10.32v15.08Z" fill="#fff"/><path d="M73.28,352.99h38.34v10.32h-13.76v36.71h13.76v10.32h-38.34v-10.32h13.77v-36.71h-13.77v-10.32Z" fill="#fff"/><path d="M150.65,398.05h-19.5l-2.79,12.29h-11.31l13.68-57.35h20.32l13.68,57.35h-11.31l-2.79-12.29ZM133.45,387.73h14.83l-6.64-29.33h-1.47l-6.72,29.33Z" fill="#fff"/><path d="M67.49,508.66h-10.81v-17.21c0-1.31-.34-2.38-1.02-3.2-.68-.82-1.82-1.23-3.4-1.23h-12.45v21.63h-10.82v-57.35h21.96c2.95,0,5.54.41,7.78,1.23,2.24.82,4.11,1.95,5.61,3.4,1.5,1.45,2.65,3.13,3.44,5.04.79,1.91,1.19,3.96,1.19,6.14v1.97c0,2.35-.63,4.55-1.88,6.6-1.26,2.05-3.2,3.62-5.82,4.71v1.47c1.91.22,3.43.96,4.55,2.21,1.12,1.26,1.68,2.84,1.68,4.75v19.83ZM39.8,476.71h10.32c2.62,0,4.62-.61,5.98-1.84,1.36-1.23,2.05-2.96,2.05-5.2v-.98c0-1.91-.68-3.56-2.05-4.96-1.37-1.39-3.36-2.09-5.98-2.09h-10.32v15.08Z" fill="#fff"/><path d="M73.86,451.31h36.21v10.32h-25.4v13.11h24.42v10.32h-24.42v13.27h26.38v10.32h-37.2v-57.35Z" fill="#fff"/><path d="M150.61,496.37h-19.5l-2.79,12.29h-11.31l13.68-57.35h20.32l13.68,57.35h-11.31l-2.79-12.29ZM133.4,486.05h14.83l-6.64-29.33h-1.47l-6.72,29.33Z" fill="#fff"/><path d="M167.41,451.31h10.82v47.03h26.05v10.32h-36.87v-57.35Z" fill="#fff"/><path d="M210.3,451.31h38.34v10.32h-13.77v36.71h13.77v10.32h-38.34v-10.32h13.76v-36.71h-13.76v-10.32Z" fill="#fff"/><path d="M252.3,451.31h41.29v10.32h-15.24v47.03h-10.81v-47.03h-15.24v-10.32Z" fill="#fff"/><path d="M314.52,488.51h-2.46l-16.47-37.2h11.8l11.8,27.37h1.47l11.8-27.37h11.8l-16.47,37.2h-2.46v20.16h-10.81v-20.16Z" fill="#fff"/><line x1="23" y1="320.34" x2="353.87" y2="357.96" fill="#ce9400" stroke="#fd0" stroke-linecap="round" stroke-linejoin="round" stroke-width="10"/><line x1="23.08" y1="433.44" x2="355.92" y2="423.25" fill="#003480" stroke="#0075ff" stroke-linecap="round" stroke-linejoin="round" stroke-width="10"/><line x1="23.18" y1="519.51" x2="355.82" y2="535.18" fill="#009336" stroke="#00cc51" stroke-linecap="round" stroke-linejoin="round" stroke-width="10"/><line x1="23.08" y1="604.44" x2="355.92" y2="594.25" fill="#de0051" stroke="#ff0064" stroke-linecap="round" stroke-linejoin="round" stroke-width="10"/><path d="M158.92,240.53l-28.16,2.69-12.66-132.59c-1.48-15.55-15.29-26.95-30.84-25.47h0c-15.55,1.48-26.95,15.29-25.47,30.84l15.35,160.75h0c1.48,15.55,15.29,26.95,30.84,25.47h0l56.31-5.38c15.55-1.48,26.95-15.29,25.47-30.84h0c-1.48-15.55-15.29-26.95-30.84-25.47Z" fill="#fff" stroke="#003480" stroke-miterlimit="10" stroke-width="10"/><path d="M250.71,5.39L82.98,21.41C34.57,26.03-1.02,69.91,5.85,118.05c6.37,44.59,46.75,76.73,92.06,72.4l45.29-4.32c5.87-.56,10.31-5.5,10.31-11.4,0-1.99.2-4.1.73-6.21,1.82-7.26,9.19-20.32,24.74-21.81,15.55-1.48,23.05,7.61,28.36,14.47,2.46,3.17,6.86,8.69,10.05,12.69,2.4,3,6.15,4.59,9.98,4.22l38.28-3.66c48.41-4.62,84-48.51,77.13-96.65-6.37-44.59-46.75-76.73-92.06-72.4Z" fill="#0075ff" stroke="#003480" stroke-miterlimit="10" stroke-width="10"/><circle cx="258.78" cy="89.92" r="56.57" fill="#fff" stroke="#003480" stroke-miterlimit="10" stroke-width="10"/><circle cx="89.85" cy="106.05" r="56.57" fill="#fff" stroke="#003480" stroke-miterlimit="10" stroke-width="10"/><path d="M87.85,85.1h0c-15.55,1.48-26.95,15.29-25.47,30.84l3.97,41.55c7.97,3.65,16.89,5.5,26.18,5.05l5.38-.51c9.21-1.32,17.61-4.82,24.75-9.92l-3.97-41.55c-1.48-15.55-15.29-26.95-30.84-25.47Z" fill="#003480" stroke="#003480" stroke-miterlimit="10" stroke-width="10"/><circle cx="89.85" cy="106.05" r="56.57" fill="none" stroke="#003480" stroke-miterlimit="10" stroke-width="10"/><path d="M261.22,183.02l-21.98,17.8-35.62-43.98c-9.83-12.14-27.64-14.01-39.78-4.18h0c-12.14,9.83-14.01,27.64-4.18,39.78l53.43,65.96h0c9.83,12.14,27.64,14.01,39.78,4.18h0l43.96-35.6c12.14-9.83,14.01-27.64,4.18-39.78h0c-9.83-12.14-27.64-14.01-39.78-4.18Z" fill="#fff" stroke="#003480" stroke-miterlimit="10" stroke-width="10"/><path d="M256.78,68.97h0c-15.55,1.48-26.95,15.29-25.47,30.84l3.97,41.55c7.97,3.65,16.89,5.5,26.18,5.05l5.38-.51c9.21-1.32,17.61-4.82,24.75-9.92l-3.97-41.55c-1.48-15.55-15.29-26.95-30.84-25.47Z" stroke="#000" stroke-miterlimit="10" stroke-width="10"/><path d="M256.78,68.91h0c-15.55,1.48-26.95,15.29-25.47,30.84l3.97,41.55c7.97,3.65,16.89,5.5,26.18,5.05l5.38-.51c9.21-1.32,17.61-4.82,24.75-9.92l-3.97-41.55c-1.48-15.55-15.29-26.95-30.84-25.47Z" fill="#003480" stroke="#003480" stroke-miterlimit="10" stroke-width="10"/><circle cx="258.78" cy="89.86" r="56.57" fill="none" stroke="#003480" stroke-miterlimit="10" stroke-width="10"/></svg>